<?xml version="1.0" encoding="iso-8859-1"?>
<!-- Generator: Adobe Illustrator 22.1.0, SVG Export Plug-In . SVG Version: 6.00 Build 0)  -->
<svg version="1.1" id="Layer_1" xmlns="http://www.w3.org/2000/svg" xmlns:xlink="http://www.w3.org/1999/xlink" x="0px" y="0px"
	 viewBox="0 0 512 512" style="enable-background:new 0 0 512 512;" xml:space="preserve">
<path style="fill:#3F58A7;" d="M256,48C141.6,48,48,141.6,48,256s93.6,208,208,208s208-93.6,208-208S370.4,48,256,48z M256,110.4
	c34.3,0,62.4,28.1,62.4,62.4s-28.1,62.4-62.4,62.4s-62.4-28.1-62.4-62.4S221.7,110.4,256,110.4L256,110.4z M256,410.8
	c-52,0-97.8-27-124.8-66.6c1-41.6,83.2-64.5,124.8-64.5s123.8,22.9,124.8,64.5C353.8,383.7,308,410.8,256,410.8L256,410.8z"/>
<rect style="fill:#3F58A7;" width="106" height="512"/>
<rect x="205.4" y="205.4" transform="matrix(-1.836970e-16 1 -1 -1.836970e-16 717.4 205.4)" style="fill:#3F58A7;" width="101.2" height="512"/>
<rect x="200.8" y="-200.8" transform="matrix(-1.836970e-16 1 -1 -1.836970e-16 311.2 -200.8)" style="fill:#3F58A7;" width="110.4" height="512"/>
<rect x="406" style="fill:#3F58A7;" width="106" height="512"/>
<rect x="53" y="371.079" style="fill:#3F58A7;" width="84" height="69"/>
<rect x="380.8" y="390.079" style="fill:#3F58A7;" width="67.2" height="50"/>
<rect x="34" y="79.079" style="fill:#3F58A7;" width="109" height="77"/>
<rect x="375" y="79.079" style="fill:#3F58A7;" width="73" height="73"/>
<ellipse style="fill:#3F58A7;" cx="256" cy="213.418" rx="38.212" ry="8.494"/>
</svg>
